<svg width="924" height="228" viewBox="0 0 924 228" fill="none" xmlns="http://www.w3.org/2000/svg">
<path d="M228.089 114C228.089 176.862 177.147 227.825 114.286 227.825C51.4239 227.825 0.461548 176.862 0.461548 114C0.461548 51.1388 51.4239 0.175995 114.286 0.175995C177.147 0.175995 228.089 51.1388 228.089 114" fill="#EE3023"/>
<path d="M115.185 177.468C83.9216 177.575 51.3815 150.889 51.2361 108.02C51.1315 79.6833 66.4388 52.3937 85.9704 36.2076C105.042 20.4399 131.161 10.2978 154.833 10.2135C157.887 10.2135 161.086 10.4646 163.031 11.1336C142.328 15.4206 125.85 34.7017 125.912 56.5546C125.912 57.2864 125.975 58.06 126.058 58.4156C160.709 66.8641 176.435 87.7761 176.539 116.697C176.623 145.64 153.787 177.342 115.183 177.467" fill="white"/>
<path d="M301.594 161.136L266.797 78.0943H289.529L311.235 133.24L332.273 78.0943H353.979L320.207 161.136L301.594 161.136ZM414.54 119.186C414.54 115.736 414.143 112.453 413.327 109.337C412.532 106.221 411.32 103.544 409.71 101.307C408.099 99.0481 406.155 97.2707 403.854 95.9531C401.554 94.6151 398.856 93.9456 395.761 93.9456C392.666 93.9456 389.948 94.6151 387.668 95.9531C385.368 97.2707 383.402 99.0481 381.813 101.307C380.202 103.544 378.99 106.221 378.196 109.337C377.38 112.453 376.982 115.736 376.982 119.187C376.982 122.763 377.38 126.088 378.195 129.141C378.99 132.194 380.161 134.87 381.708 137.171C383.256 139.471 385.221 141.29 387.584 142.629C389.927 143.946 392.666 144.616 395.761 144.616C398.856 144.616 401.554 143.946 403.854 142.629C406.155 141.29 408.099 139.471 409.709 137.171C411.32 134.87 412.533 132.193 413.327 129.141C414.143 126.088 414.54 122.763 414.54 119.186V119.186ZM435.557 119.278C435.557 124.694 434.72 130.005 433.068 135.233C431.395 140.461 428.928 145.125 425.644 149.265C422.382 153.406 418.242 156.731 413.244 159.261C408.246 161.792 402.411 163.046 395.761 163.046C389.09 163.046 383.256 161.791 378.279 159.261C373.281 156.731 369.14 153.406 365.857 149.265C362.595 145.125 360.127 140.461 358.454 135.233C356.802 130.005 355.965 124.694 355.965 119.278C355.965 113.882 356.802 108.613 358.454 103.426C360.127 98.2613 362.595 93.6395 365.857 89.5617C369.14 85.4839 373.281 82.2216 378.279 79.7538C383.256 77.2865 389.09 76.0317 395.761 76.0317C402.411 76.0317 408.225 77.2871 413.161 79.7538C418.095 82.2216 422.236 85.4839 425.561 89.5617C428.907 93.6395 431.395 98.2613 433.068 103.426C434.72 108.613 435.557 113.882 435.557 119.278V119.278ZM499.736 96.3716C495.616 94.7611 491.789 93.9456 488.234 93.9456C484.595 93.9456 481.438 94.6575 478.824 96.0368C476.189 97.4161 474.014 99.2782 472.299 101.641C470.584 104.005 469.309 106.66 468.452 109.609C467.588 112.556 467.152 115.613 467.155 118.684C467.155 122.135 467.531 125.439 468.284 128.618C469.016 131.775 470.166 134.557 471.714 136.92C473.24 139.283 475.185 141.186 477.527 142.629C479.87 144.051 482.651 144.783 485.85 144.783C488.485 144.783 491.162 144.051 493.901 142.629C496.641 141.186 498.586 139.471 499.736 137.527V96.3716ZM501.451 161.136L500.593 154.779C498.648 156.953 496.076 158.877 492.856 160.53C489.657 162.202 485.871 163.039 481.521 163.039C475.813 163.039 470.752 161.826 466.423 159.421C462.053 157.016 458.393 153.796 455.423 149.781C452.454 145.766 450.174 141.102 448.627 135.812C447.1 130.542 446.327 125.021 446.327 119.27C446.323 113.897 447.127 108.553 448.711 103.419C450.321 98.2535 452.747 93.6323 456.009 89.5545C459.292 85.4762 463.37 82.2139 468.305 79.7466C473.219 77.2788 479.012 76.0245 485.641 76.0245C489.991 76.0245 494.696 76.8394 499.736 78.429V46.2242H521.087V161.136H501.451ZM581.23 122.198C578.929 122.319 576.546 122.534 574.12 122.805C571.797 123.081 569.488 123.458 567.198 123.934C562.556 124.853 559.356 126.422 557.557 128.66C555.78 130.919 554.881 133.344 554.881 136C554.881 138.739 555.884 140.956 557.913 142.629C559.941 144.281 562.786 145.118 566.487 145.118C569.268 145.122 572.019 144.538 574.559 143.403C577.152 142.252 579.39 140.81 581.23 139.095V122.198ZM582.944 161.073L582.108 154.862C579.787 157.414 576.859 159.421 573.284 160.864C569.707 162.308 565.797 163.039 561.531 163.039C557.955 163.039 554.505 162.432 551.242 161.22C547.938 160.029 545.031 158.292 542.501 156.054C539.971 153.817 537.921 151.077 536.374 147.794C534.805 144.511 534.031 140.81 534.031 136.669C534.031 132.55 534.826 128.889 536.457 125.732C538.067 122.574 540.242 119.918 543.024 117.723C545.784 115.548 548.963 113.77 552.538 112.39C556.094 111.01 559.858 109.964 563.768 109.274C566.529 108.71 569.561 108.291 572.844 107.998C576.127 107.705 578.867 107.455 581.062 107.224V106.012C581.062 101.411 579.891 98.1489 577.508 96.1833C575.145 94.238 571.882 93.2552 567.742 93.2552C565.316 93.2552 562.995 93.5481 560.799 94.1339C558.603 94.6983 556.658 95.4102 554.922 96.267C553.187 97.1452 551.66 98.0025 550.322 98.8603C549.005 99.7176 547.938 100.491 547.123 101.181L540.054 86.208C540.974 85.3931 542.375 84.4306 544.278 83.2804C546.182 82.1302 548.461 81.0009 551.179 79.9135C553.877 78.8255 556.909 77.9059 560.297 77.1533C563.685 76.4006 567.344 76.0245 571.234 76.0245C575.834 76.0245 580.038 76.6313 583.823 77.8437C587.608 79.0562 590.891 80.9381 593.651 83.5315C596.391 86.1039 598.545 89.3662 600.113 93.3394C601.661 97.2916 602.435 102.08 602.435 107.706V161.073H582.944ZM668.433 65.171C667.743 64.8368 666.404 64.3347 664.397 63.7064C662.369 63.0798 659.712 62.7654 656.367 62.7654C653.397 62.7654 650.888 63.6657 648.88 65.4425C646.873 67.2198 645.869 70.1265 645.869 74.142V78.0943H663.791V95.3254H646.036V161.136H624.664V95.3254H613.643V78.0943H624.664V73.6189C624.664 68.2236 625.354 63.6651 626.735 59.9216C628.114 56.1995 630.038 53.1458 632.506 50.8035C634.974 48.4409 637.88 46.7054 641.206 45.618C644.552 44.5294 648.169 43.9865 652.08 43.9865C657.245 43.9865 661.511 44.4677 664.899 45.4511C668.286 46.4345 670.273 47.082 670.838 47.4377L668.433 65.171ZM726.673 119.186C726.673 115.736 726.255 112.453 725.46 109.337C724.665 106.221 723.453 103.544 721.843 101.307C720.232 99.0481 718.287 97.2707 715.987 95.9531C713.687 94.6151 710.989 93.9456 707.894 93.9456C704.799 93.9456 702.08 94.6151 699.801 95.9531C697.5 97.2707 695.535 99.0481 693.925 101.307C692.335 103.544 691.122 106.221 690.307 109.337C689.512 112.453 689.115 115.736 689.115 119.187C689.115 122.763 689.512 126.088 690.307 129.141C691.123 132.194 692.293 134.87 693.841 137.171C695.388 139.471 697.354 141.29 699.696 142.629C702.059 143.946 704.799 144.616 707.894 144.616C710.989 144.616 713.686 143.946 715.987 142.629C718.287 141.29 720.232 139.471 721.842 137.171C723.453 134.87 724.665 132.193 725.46 129.141C726.255 126.088 726.673 122.763 726.673 119.186ZM747.69 119.278C747.69 124.694 746.853 130.005 745.18 135.233C743.528 140.461 741.06 145.125 737.777 149.265C734.515 153.406 730.374 156.731 725.376 159.261C720.379 161.792 714.544 163.046 707.894 163.046C701.223 163.046 695.388 161.791 690.411 159.261C685.414 156.731 681.273 153.406 677.99 149.265C674.727 145.125 672.26 140.461 670.587 135.233C668.931 130.077 668.092 124.693 668.098 119.278C668.098 113.882 668.914 108.613 670.587 103.426C672.26 98.2613 674.727 93.6395 677.99 89.5617C681.273 85.4839 685.414 82.2216 690.411 79.7538C695.389 77.2865 701.223 76.0317 707.894 76.0317C714.544 76.0317 720.358 77.2871 725.293 79.7538C730.228 82.2216 734.368 85.4839 737.693 89.5617C741.039 93.6395 743.528 98.2613 745.18 103.426C746.853 108.613 747.69 113.882 747.69 119.278V119.278ZM814.002 161.136V113.77C814.002 107.455 812.684 102.561 810.049 99.1108C807.393 95.6811 803.734 93.9462 799.008 93.9462C795.683 93.9462 792.609 94.8029 789.807 96.539C786.983 98.2535 784.537 100.156 782.466 102.227V161.136H761.115V78.0943H780.584L781.609 84.6398C784.973 81.8773 788.795 79.7257 792.901 78.2826C797.083 76.7772 801.308 76.0449 805.553 76.0449C809.923 76.0449 813.939 76.693 817.619 78.0106C821.3 79.3491 824.458 81.4408 827.092 84.3051C829.748 87.1704 831.777 90.9134 833.219 95.4934C834.642 100.094 835.373 105.615 835.373 112.035V161.136H814.002ZM901.832 109.63C901.602 106.765 900.995 104.256 900.013 102.143C899.03 100.01 897.817 98.2954 896.374 96.9783C894.931 95.6393 893.383 94.6779 891.71 94.0293C890.017 93.4027 888.323 93.0883 886.587 93.0883C882.886 93.0883 879.372 94.4681 876.026 97.2289C872.681 99.9896 870.715 104.109 870.129 109.63L901.832 109.63ZM869.627 124.958C870.087 131.964 872.262 137.024 876.194 140.119C880.105 143.214 885.186 144.783 891.397 144.783C894.283 144.783 897.001 144.511 899.532 144.009C902.062 143.487 904.321 142.838 906.286 142.022C908.252 141.227 909.925 140.412 911.305 139.617C912.685 138.802 913.71 138.049 914.421 137.359L920.109 154.779C919.294 155.343 917.997 156.117 916.219 157.1C914.442 158.083 912.225 158.982 909.59 159.86C906.955 160.717 903.84 161.45 900.285 162.098C896.73 162.724 892.819 163.039 888.573 163.039C883.158 163.039 878.034 162.181 873.141 160.466C868.268 158.731 863.981 156.054 860.321 152.436C856.641 148.819 853.714 144.323 851.539 138.927C849.343 133.531 848.255 127.091 848.255 119.625C848.255 112.62 849.259 106.409 851.267 101.014C853.274 95.6184 856.035 91.0808 859.527 87.4C863.04 83.7402 867.118 80.9172 871.761 78.9515C876.424 77.0068 881.38 76.024 886.671 76.024C891.961 76.024 896.834 76.9028 901.33 78.6173C905.805 80.3314 909.674 83.0084 912.957 86.6259C916.219 90.2439 918.813 94.9284 920.695 100.679C922.597 106.409 923.538 113.247 923.538 121.172V124.958L869.627 124.958Z" fill="#EE3023"/>
</svg>
